# xmcd
#
# Track frame offsets:
#	150
#	28522
#	48503
#	78398
#	89984
#	112275
#	154297
#	200753
#	249505
#	287387
#
# Disc length: 4103 seconds
#
# Revision: 1
# Processed by: cddbd v1.5.2PL0 Copyright (c) Steve Scherf et al.
# Submitted via: audiograbber 1.83.01
#
DISCID=9010050a
DTITLE=Grateful Dead - 79-12-10 Soldiers and Sailors Memorial Hall, Kansas City K
DTITLE=S
DYEAR=1900
DGENRE=
TTITLE0=Cold Rain and Snow
TTITLE1=Greatest Story Ever Told
TTITLE2=Peggy-O
TTITLE3=Mama Tried
TTITLE4=Mexicali Blues
TTITLE5=Tennessee Jed
TTITLE6=Dancing In The Streets
TTITLE7=Franklin's Tower
TTITLE8=Looks Like Rain
TTITLE9=Deal
EXTD=
EXTT0=
EXTT1=
EXTT2=
EXTT3=
EXTT4=
EXTT5=
EXTT6=
EXTT7=
EXTT8=
EXTT9=
PLAYORDER=
